<svg xml:space="preserve" viewBox="0 0 180 179.9" y="0px" x="0px" xmlns:xlink="http://www.w3.org/1999/xlink" xmlns="http://www.w3.org/2000/svg" id="Layer_1" version="1.1" width="180"  height="179.9" ><path d="M156.9,89.9c0.1,31.5-22,58.8-52.8,65.4c-22.6,4.7-42.7-1-59.8-16.6c-10.1-9.2-17-21.4-19.7-34.7 c-0.8-3.8,2-6.8,5.7-6.1c1.9,0.3,3.5,1.8,3.8,3.7c0.6,3,1.5,5.9,2.6,8.8c8.2,19.8,22.8,32.1,43.9,35.9c30,5.4,58.5-14.2,65.2-43.5 c2.4-10.5,1.8-21.4-1.8-31.6c-0.6-1.1-0.7-2.4-0.6-3.7c0.4-2.1,2.1-3.6,4.2-3.9c2.2-0.3,4.3,0.9,5.1,3c0.9,2.4,1.7,4.9,2.3,7.4 C156.2,79.2,156.9,84.5,156.9,89.9z M0,90.2C-0.1,53.9,21.5,21.1,54.9,7c0.8-0.4,1.6-0.6,2.5-0.7c2.6-0.1,4.9,1.9,5,4.5 c0.1,1.8-0.8,3.5-2.4,4.4c-0.6,0.3-1.2,0.5-1.8,0.8c-25,11.4-41,30.3-46.8,57.1c-5.3,24.3,0.2,46.6,15.3,66.5 c0.7,0.8,1.3,1.7,1.6,2.7c0.6,2.1-0.4,4.4-2.4,5.4c-2,1.1-4.5,0.6-6-1.2c-2.5-3.1-4.8-6.3-6.8-9.7C6.6,126,2.4,113.9,0.7,101.4 C0.2,97.7,0,93.9,0,90.2z M138.7,46.6c-0.1,1.7-1.1,3.2-2.7,3.9c-1.6,0.9-3.7,0.7-5.1-0.5c-0.5-0.4-1-0.8-1.5-1.3 c-8.4-8.2-19.3-13.5-30.9-15.2C70.1,29.2,42.9,46.7,35,74.3c-0.1,0.5-0.3,0.9-0.4,1.4c-0.9,2.3-3.4,3.5-5.8,2.8 c-2.5-0.6-4-3.1-3.5-5.6c0.8-3.5,1.9-6.9,3.5-10.1c9.8-21,26-34.3,48.8-38.6s42.5,2,59.3,17.9C138.1,43.2,138.8,44.9,138.7,46.6z M180,91c-0.1,14.8-4,29.4-11.1,42.3c-0.2,0.4-0.5,0.9-0.8,1.3c-1.5,2.2-4.4,2.7-6.6,1.2c-1.9-1.3-2.6-3.7-1.6-5.8 c0.6-1.2,1.3-2.4,1.9-3.7c4.4-8.5,7.1-17.8,8.1-27.3c2.5-24.3-4.5-45.5-20.8-63.7c-0.8-0.8-1.6-1.7-2.4-2.5c-2-1.7-2.2-4.7-0.5-6.7 s4.7-2.2,6.7-0.5c0.1,0.1,0.3,0.2,0.4,0.4c3.5,3.4,6.6,7.1,9.4,11c8.5,11.6,14.1,25.1,16.2,39.4C179.7,81.2,180,86.1,180,91z M90.1,179.9c-16.8,0.1-33.2-4.6-47.5-13.4c-0.5-0.3-1-0.6-1.5-1c-2-1.7-2.3-4.7-0.6-6.7c1.4-1.6,3.7-2.2,5.6-1.3 c0.4,0.2,0.9,0.5,1.3,0.7c10,6.3,21.3,10.3,33.1,11.6c20.6,2.3,39.5-2.5,56.5-14.6c0.5-0.4,1-0.7,1.5-1.1c2.1-1.6,5.1-1.2,6.7,0.8 c1.6,2.1,1.2,5.1-0.8,6.7c-0.1,0.1-0.2,0.1-0.2,0.2c-4.2,3.2-8.7,6-13.4,8.4c-9.6,4.8-19.9,7.9-30.5,9.1 C96.8,179.7,93.4,179.9,90.1,179.9z M94.1,82.6c-1.8,0-3.6,0.1-5.4,0c-2.6,0-4.7-2-4.8-4.6c0-0.7,0.1-1.4,0.4-2 c0.6-1.6,2.1-2.7,3.8-2.7c5.5,0,11.1-0.7,16.5,0.8c11.8,3.3,19.3,10.8,21.5,22.9c1.5,8.3-0.9,15.8-6.6,22.2c-1.2,1.5-3.1,2-4.9,1.5 c-1.8-0.5-3.2-2-3.3-3.9c-0.2-1.4,0.3-2.9,1.3-3.9c1.8-1.9,3.1-4.2,3.8-6.6c2.2-7.9-1.1-16.4-8.2-20.6c-3.1-2-6.7-3-10.4-3 L94.1,82.6z M88.6,106.4c-3.5,0.2-7.1-0.1-10.5-1c-10.6-3.4-17.6-10.2-20.3-21.1c-1.1-4.4-0.7-8.9,0.3-13.3c0.4-2.3,1.1-4.6,2-6.8 c1-2.4,3.8-3.4,6.2-2.4c2.2,1,3.3,3.5,2.5,5.8c-1,2.7-1.6,5.5-2,8.3c-0.9,5.7,1,11.5,5.2,15.4c3.5,3.6,8.3,5.7,13.4,5.8 c3.3,0.1,6.6,0,9.9,0.1c2.6,0.1,4.5,2.3,4.4,4.9c-0.1,2.4-2,4.3-4.4,4.4C93.3,106.5,91.3,106.4,88.6,106.4z M88.7,129.9 c-7.8,0.1-15.4-1.8-22.2-5.7c-5.3-3.1-9.9-7.1-13.7-11.9c-1.8-1.9-1.6-4.9,0.3-6.6c0,0,0.1-0.1,0.2-0.1c2.1-1.8,4.9-1.4,6.8,0.8 c1.9,2.3,4,4.4,6.3,6.3c5.9,4.8,13.2,7.6,20.8,7.8c3.3,0,6.7-0.1,10-0.4c2.2-0.2,4.3,1.2,4.9,3.3c0.8,2.4-0.6,5-3.1,5.8 c-0.3,0.1-0.6,0.2-0.9,0.2C95,129.7,91.8,129.9,88.7,129.9z M91.8,47.3c8.6,0.1,16.4,2.5,23.1,8.1c1.3,1.1,2.4,2.3,3.4,3.6 c1.7,2,1.4,4.9-0.6,6.6c0,0-0.1,0-0.1,0.1c-1.9,1.6-4.8,1.4-6.4-0.5c0,0-0.1-0.1-0.1-0.1c-5.4-6.8-17.5-10-26.7-7.3 c-1.4,0.5-2.8,1-4.1,1.7c-2.3,1.2-5.1,0.2-6.3-2.1S74,52.2,76.3,51l0,0c2.4-1.3,5-2.3,7.7-2.9C86.6,47.6,89.2,47.3,91.8,47.3z M93.3,0c10.6,0.4,21,2.6,30.8,6.6c1.7,0.5,3,2,3.3,3.8c0.5,2.5-1.2,5-3.7,5.5c-0.9,0.2-1.9,0.1-2.8-0.3c-3-1.1-6-2.2-9-3.1 c-6.8-1.9-13.8-2.9-20.9-3c-0.7,0-1.3,0-2-0.2c-2.3-0.4-3.9-2.5-3.8-4.9c0.1-2.4,1.9-4.3,4.3-4.4C90.8,0,92,0,93.3,0z" class="fill-current" fill="#FFFFFF"></path></svg>